<?xml version="1.0" standalone="no"?>
<!DOCTYPE svg PUBLIC "-//W3C//DTD SVG 20010904//EN"
 "http://www.w3.org/TR/2001/REC-SVG-20010904/DTD/svg10.dtd">
<svg version="1.0" xmlns="http://www.w3.org/2000/svg"
 width="512.000000pt" height="512.000000pt" viewBox="0 0 512.000000 512.000000"
 preserveAspectRatio="xMidYMid meet">
<metadata>
Created by potrace 1.11, written by Peter Selinger 2001-2013
</metadata>
<g transform="translate(0.000000,512.000000) scale(0.100000,-0.100000)"
fill="#000000" stroke="none">
<path d="M3098 4575 c-2 -1 -86 -5 -188 -9 -102 -3 -198 -8 -215 -10 -16 -2
-61 -7 -100 -11 -38 -3 -117 -13 -175 -22 -58 -8 -117 -17 -131 -19 -24 -3
-149 -28 -204 -41 -11 -2 -31 -6 -44 -9 -110 -23 -315 -87 -455 -143 -503
-202 -902 -563 -1092 -989 -57 -128 -114 -306 -128 -403 -3 -20 -7 -42 -10
-50 -15 -44 -29 -236 -29 -375 1 -109 10 -264 16 -271 2 -2 28 25 57 60 69 80
298 307 375 372 33 28 66 55 73 62 30 29 225 175 312 234 361 247 801 453
1245 583 133 39 341 91 395 100 19 3 67 12 105 20 39 8 108 20 155 26 47 6 94
13 106 15 11 1 52 6 90 10 38 4 85 8 104 10 71 8 320 17 320 12 0 -3 -17 -11
-37 -18 -38 -12 -344 -136 -418 -169 -22 -10 -92 -41 -155 -70 -160 -71 -567
-281 -740 -380 -281 -161 -566 -345 -780 -503 -87 -64 -310 -238 -336 -262 -6
-5 -42 -37 -80 -70 -491 -426 -881 -922 -1089 -1386 -50 -111 -51 -115 -30
-167 39 -95 203 -176 305 -150 51 13 69 34 130 158 111 222 276 484 444 705
50 66 98 128 107 138 16 17 21 16 135 -22 232 -78 489 -142 669 -166 28 -3 64
-8 80 -11 156 -21 415 -20 563 1 90 14 113 18 184 36 251 63 468 183 648 360
53 52 116 121 140 154 25 33 48 62 51 65 11 8 124 181 163 250 21 36 100 193
177 350 327 664 378 755 552 990 175 234 391 430 641 581 61 36 112 71 114 77
11 35 -119 100 -317 157 -195 56 -568 126 -796 150 -27 3 -66 7 -85 10 -19 2
-69 7 -110 10 -41 4 -95 8 -120 10 -98 9 -586 25 -592 20z"/>
</g>
</svg>
